<svg xmlns="http://www.w3.org/2000/svg" version="1.1" width="64" height="64" fill="#ffe6cc" viewBox="0 0 524.41 744.09">
 <g transform="translate(0 -308.27)">
  <g transform="matrix(.8 0 0 .8 -37.478 267.06)">
   <path d="m518.24 745.95c0.0491-0.50953 0.69716-0.96194 1.9273-1.2302 1.2302-0.26821 3.0476-0.34329 5.3047 0.0432 2.2571 0.38648 4.9567 1.2445 7.7572 2.8388s5.6994 3.933 8.157 7.1381c1.699 2.238 3.1423 4.8481 4.1732 7.7317 1.031 2.8837 1.6484 6.0402 1.7287 9.3032 0.0767 3.1127-0.33971 6.17-1.1775 9.0169-0.97256 3.2636-2.4715 6.1809-4.2492 8.6459s-3.832 4.4784-5.9284 6.0351c-2.1906 1.6223-4.3996 2.7324-6.4141 3.4572s-3.8349 1.067-5.3346 1.1736c-1.4998 0.10652-2.6804-0.0197-3.4876-0.25806s-1.2425-0.58641-1.2996-0.99151c-0.057-0.4051 0.26435-0.8454 0.86972-1.3438 0.60536-0.49838 1.4955-1.0582 2.5748-1.7491s2.3492-1.5152 3.6943-2.5445c1.345-1.0293 2.7663-2.2647 4.1078-3.7519 1.2873-1.4222 2.5161-3.0918 3.5626-4.9862s1.9108-4.0127 2.4487-6.2726c0.47185-1.9419 0.69178-4.029 0.63345-6.1744-0.0611-2.2491-0.42395-4.447-1.0208-6.4896s-1.428-3.929-2.4247-5.5987c-1.4163-2.4105-3.2083-4.4314-5.0155-6.0718s-3.6314-2.9018-5.2246-3.8958c-1.5931-0.99396-2.9596-1.727-3.9136-2.3549-0.95398-0.62794-1.4986-1.1614-1.4495-1.6709z" fill-rule="evenodd"/>
   <path d="m438.6 577.9c-1.1384 9.8909-2.3447 26.873-3.115 36.634-0.77028 9.761-1.0981 21.379-0.34272 34.223 0.75533 12.845 2.21 25.032 6.0785 41.3 3.8684 16.268 9.0482 33.99 16.523 49.945 7.4751 15.956 19.933 33.017 30.052 46.709-15.905-8.4981-26.069-13.218-41.99-34.578s-21.689-41.996-24.944-55.936-3.0952-32.1-2.5916-43.953c0.50353-11.854 2.5216-24.743 4.7872-34.6 2.2655-9.8568 4.4309-21.018 15.543-39.744z" fill-rule="evenodd"/>
   <path d="m518.07 96.122c-8.2682 3.1706-16.121 6.1884-23.959 10.293s-19.622 12.159-26.155 18.079c-6.5332 5.9201-14.333 14.839-18.211 20.371-3.8782 5.5322-10.539 17.198-14.699 24.807 0.38827-8.3463 0.72233-15.614 3.2884-23.256 2.5661-7.6421 8.424-21.307 20.502-31.913s21.073-13.903 31.148-16.659c10.075-2.7554 20.211-2.4082 28.087-1.7231z" fill-rule="evenodd"/>
   <path d="m544.08 103.16c-3.3517 4.2202-4.0994 6.759-6.4675 11.411s-4.407 12.272-4.2259 18.306 0.90403 12.839 4.5392 18.492c3.6351 5.6533 10.895 11.369 15.844 13.413-7.1816 0.50143-17.849-4.8017-21.491-9.2975-3.6423-4.4958-10.116-11.244-10.027-22.17 0.0894-10.926 3.6595-16.164 7.7566-20.769 4.0972-4.605 9.3836-8.5255 14.071-9.3848z" fill-rule="evenodd"/>
   <path d="m539.66 97.236c-7.5848 4.5701-14.787 8.917-21.785 14.331-6.9982 5.4145-17.188 15.409-22.583 22.382-5.395 6.9732-11.511 17.121-14.36 23.247-2.849 6.1261-7.3626 18.778-10.126 26.999-1.08-8.2852-2.0245-15.499-0.83697-23.473 1.1875-7.9735 4.5608-22.453 14.594-35.011 10.033-12.558 18.311-17.38 27.747-21.858 9.4362-4.4779 19.476-5.9118 27.35-6.6172z" fill-rule="evenodd"/>
   <path d="m573.44 834.84c-30.119-15.376-64.025-22.104-97.77-24.299-33.745-2.1956-67.599-0.0305-101.38 1.462s-67.797 2.3012-101.26-2.5732-66.599-15.713-93.897-35.674c-23.68-17.315-42.349-41.145-54.656-67.773s-18.343-55.986-18.822-85.317c-0.70718-43.246 10.745-86.675 32.995-123.76 22.25-37.09 55.265-67.694 94.092-86.753 25.192-12.366 52.474-19.857 78.31-30.814s51.061-26.2 66.416-49.69c15.761-24.11 19.319-53.856 26.267-81.81 7.528-30.287 19.468-59.473 35.328-86.352-21.078 15.799-37.527 37.697-46.83 62.341-5.2464 13.899-8.234 28.524-11.863 42.931s-7.9938 28.825-15.677 41.541c-7.8608 13.01-19.005 23.85-31.508 32.494s-26.364 15.165-40.562 20.595c-28.395 10.859-58.388 17.51-85.963 30.308-43.299 20.095-79.113 55.139-102.13 96.961-23.012 41.822-33.422 90.145-31.936 137.86 1.0888 34.978 8.5251 69.952 23.634 101.52 15.109 31.566 38.052 59.629 67.152 79.068 45.511 30.403 102.44 37.988 157.16 38.909 54.724 0.92146 109.91-3.9547 163.92 4.9335 68.443 11.265 132.97 45.141 181.11 95.08-13.921-47.485-48.057-88.678-92.13-111.18" stroke="#000" stroke-width=".729px"/>
   <path d="m355.96 683.34c0-6.6883-35.43-35.112-55.073-44.182-24.026-11.094-59.628-15.212-81.822-9.4638-20.027 5.1866-13.472-2.796 9.5697-11.654 26.687-10.259 63.519-10.808 82.593-1.2302 13.68 6.8695 26.533 18.551 35.308 32.089 7.4568 11.505 16.127 37.296 12.538 37.296-1.7118 0-3.1124-1.284-3.1124-2.8535z"/>
   <path d="m549.57 413.11c16.868 8.0488 29.458 31.757 30.71 49.689s-3.175 41.339-10.388 54.267c-7.2126 12.927-28.214 43.449-43.725 77.71-10.076 22.256-17.836 46.091-17.993 67.704 0.20432 18.6-0.18064 27.825 3.8834 49.693 4.0641 21.868 6.9499 23.486 8.8797 34.36-10.524-11.07-18.285-33.056-23.31-55.251-5.69-25.13-9.1012-33.754-6.5936-60.656s12.059-41.541 22.834-61.837c12.867-24.239 27.34-45.384 33.009-53.958 5.669-8.5742 19.79-30.603 21.046-51.159 1.2561-20.557-8.907-36.505-18.354-50.56z" fill-rule="evenodd"/>
   <g transform="matrix(.81 0 0 .81 977.05 40.242)">
    <path d="m-484.04 233.64c-0.30064-0.15406-0.45806-0.55491-0.54937-1.1444-0.0913-0.58955-0.11967-1.3716-0.19968-2.3099-0.08-0.93826-0.21327-2.0373-0.51617-3.2168-0.30291-1.1795-0.77575-2.4433-1.5226-3.6017-0.67901-1.08-1.6211-2.1207-2.7828-2.9829s-2.5427-1.5472-3.9891-1.8344c-1.1928-0.25777-2.5183-0.26499-3.8288-0.0144-1.3105 0.25058-2.6052 0.75832-3.6694 1.5246-1.0924 0.75431-2.0612 1.8522-2.7672 3.1206-0.57812 1.0387-0.95981 2.1564-1.0952 3.2418-0.36182 2.1535 0.26453 4.6018 1.2163 6.8311 1.1092 2.5507 2.9287 4.8432 4.7447 6.9434 3.2115 3.6502 6.3617 6.3297 8.5841 8.3069 1.1112 0.98862 1.9938 1.8054 2.5564 2.4787s0.80496 1.2049 0.64567 1.5867-0.71298 0.59187-1.6267 0.60395c-0.91374 0.0121-2.1878-0.17557-3.7514-0.62682-3.1274-0.90252-7.4534-2.881-11.937-6.4779-2.5803-2.04-5.3049-4.7468-7.487-8.4879-1.9548-3.327-3.1968-7.5576-2.8046-12.245 0.2537-2.444 0.99894-4.8351 2.2041-7.0105 1.4717-2.6564 3.5726-4.8865 6.0648-6.5047 2.4748-1.5761 5.1861-2.4681 7.8567-2.7501 2.6706-0.28202 5.2996 0.0451 7.6827 0.86085 2.8683 1.0083 5.2118 2.6638 6.972 4.5665s2.9391 4.0509 3.6116 6.1428c0.7106 2.2621 0.81381 4.3667 0.6135 6.1375s-0.70159 3.2118-1.2618 4.2912-1.1777 1.8021-1.7034 2.2124c-0.52572 0.41037-0.95918 0.51249-1.2598 0.35843z" fill-rule="evenodd"/>
    <path transform="matrix(.53423 0 0 .661 -234.73 86.762)" d="m-473.26 218.99c0 13.11-4.6357 23.739-10.354 23.739-5.7184 0-10.354-10.628-10.354-23.739 0-13.11 4.6357-23.739 10.354-23.739 5.662 0 10.274 10.427 10.353 23.407l-10.353 0.33144z" stroke="#000" stroke-linecap="round" stroke-width=".8"/>
   </g>
   <path d="m471.81 800.58c-18.847-14.21-54.485-14.657-117.51-17.884-82.453-4.2217-118.35-15.233-136.83-21.89-21.581-7.7743-21.59-2.4485-0.0195 10.896 22.613 13.989 53.889 25.107 143.96 25.44 59.145 0.21861 84.908-4.3086 102.61 3.2752 12.477 5.3456 14.73 5.3928 7.7943 0.16351z"/>
   <path d="m552.96 163.82c9.6668 0.79139 25.732 7.1959 31.89 12.594 12.119 12.315 17.134 23.149 21.648 37.748 2.2864 7.3098 4.3826 14.592 7.2537 21.106 5.6047 11.971 12.978 23.561 14.458 35.766-1.0924 20.834-7.8884 34.472-25.122 44.382-11.314 6.4153-24.254 8.7789-34.802 14.792-13.529 8.3958-22.528 21.829-24.786 37.004-0.9645 8.0272-1.0133 15.907 0.47615 24.282 1.4895 8.3752 2.8293 13.487 6.6694 19.954-7.4619-4.334-12.55-12.633-15.48-19.601-3.3164-8.2292-4.6294-17.165-3.9789-25.274 2.3429-18.138 12.096-33.748 26.813-42.827 11.234-6.72 24.11-9.2667 34.627-15.294 12.823-7.8488 22.163-21.699 21.164-36.618-1.618-12.546-8.855-23.069-13.313-33.662-3.0105-7.3935-3.3382-14.516-5.2962-21.709-3.3601-13.275-5.1988-22.226-12.879-31.229-5.0158-7.4356-20.709-17.258-29.342-21.414z" fill-rule="evenodd"/>
   <g transform="matrix(.81 0 0 .67589 182.87 77.373)" fill-rule="evenodd">
    <path transform="translate(-2.0203 4.0406)" d="m545.88 290.42 4.9356 8.6971c11.343-7.5845 26.558-10.365 40.616-6.8213 9.9075 2.4902 19.277 8.0364 26.426 15.901-6.0722-8.7224-14.883-15.771-25.15-19.83-14.606-5.7613-31.96-5.2365-46.827 2.0532z"/>
    <path transform="translate(-2.0203 4.0406)" d="m541.69 298.83 0.91104 9.9584c9.187-1.469 18.689-1.6039 28.091-0.34794 15.638 2.0868 31.029 8.0828 44.31 17.512-11.97-11.046-26.847-19.302-43.077-23.635-9.7515-2.6024-19.965-3.7985-30.236-3.4875z"/>
    <path transform="translate(-2.0203 4.0406)" d="m543.85 308.54-2.9263 9.5623c13.23 3.1743 26.09 8.5165 37.882 15.826 11.724 7.2668 22.399 16.484 31.439 27.25-7.7054-11.758-17.364-22.391-28.561-31.321-11.263-8.982-24.069-16.23-37.833-21.317z"/>
    <path d="m515.54 305.33 5.6216-8.2703c-16.255-10.452-34.019-18.394-52.497-23.518-31.166-8.6844-65.054-9.0141-94.941 2.3993h-1e-5c-12.295 4.7024-23.791 11.333-33.944 19.539 10.57-7.6635 22.309-13.619 34.627-17.604 29.929-9.6979 62.699-7.4322 92.202 2.3993 1e-5 0 1e-5 0 1e-5 1e-5 17.51 5.8594 34.067 14.353 48.931 25.054z"/>
    <path d="m510.9 311.19 0.6078-9.9815c-34.468-1.2822-68.989 2.2328-102.28 10.352h-1e-5c-30.081 7.3262-59.365 18.533-85.347 35.057-4.076 2.5924-8.0666 5.3123-11.964 8.1539 4.0289-2.6517 8.139-5.1734 12.322-7.5604 26.661-15.216 56.112-24.843 86.082-30.658h1e-5c33.175-6.4258 67.135-8.2157 100.58-5.3626z"/>
    <path d="m517.62 315.44-1.4141-9.8995c-31.436 5.1641-61.912 15.398-89.919 30.122l-1e-5 1e-5c-28.012 14.693-53.945 34.351-72.32 59.94-9.2254 12.858-16.44 27.091-21.34 42.031 5.5311-14.718 13.308-28.534 22.946-40.826 19.175-24.478 45.411-42.517 73.395-55.774 28.022-13.243 58.096-21.901 88.652-25.593z"/>
   </g>
  </g>
 </g>
</svg>